<svg viewBox="0 0 44 44" xmlns="http://www.w3.org/2000/svg" xmlns:xlink="http://www.w3.org/1999/xlink" width="44.000000" height="44.000000" fill="none">
	<rect id="github" width="44.000000" height="44.000000" x="0.000000" y="0.000000" fill="rgb(255,255,255)" fill-opacity="0" />
	<path id="Vector" d="M21.9828 3.27852C11.3566 3.27422 2.75 11.8766 2.75 22.4941C2.75 30.8902 8.13398 38.0273 15.632 40.6484C16.6418 40.902 16.4871 40.1844 16.4871 39.6945L16.4871 36.3645C10.6563 37.0477 10.4199 33.1891 10.0289 32.5445C9.23828 31.1953 7.36914 30.8516 7.92773 30.207C9.25547 29.5238 10.609 30.3789 12.1773 32.6949C13.3117 34.375 15.5246 34.0914 16.6461 33.8121C16.891 32.8023 17.4152 31.9 18.1371 31.1996C12.0957 30.1168 9.57773 26.4301 9.57773 22.0473C9.57773 19.9203 10.2781 17.9652 11.6531 16.3883C10.7766 13.7887 11.7348 11.5629 11.8637 11.232C14.3602 11.0086 16.9555 13.0195 17.1574 13.1785C18.5754 12.7961 20.1953 12.5941 22.0086 12.5941C23.8305 12.5941 25.4547 12.8047 26.8855 13.1914C27.3711 12.8219 29.7773 11.0945 32.0977 11.3051C32.2223 11.6359 33.159 13.8102 32.334 16.3754C33.7262 17.9566 34.4352 19.9289 34.4352 22.0602C34.4352 26.4516 31.9 30.1426 25.8414 31.2082C26.3603 31.7185 26.7724 32.3272 27.0535 32.9985C27.3346 33.6699 27.4791 34.3905 27.4785 35.1184L27.4785 39.9523C27.5129 40.3391 27.4785 40.7215 28.123 40.7215C35.7328 38.1562 41.2113 30.9676 41.2113 22.4984C41.2113 11.8766 32.6004 3.27852 21.9828 3.27852Z" fill="rgb(255,255,255)" fill-rule="nonzero" />
</svg>
