<svg viewBox="0 0 50 40" xmlns="http://www.w3.org/2000/svg" xmlns:xlink="http://www.w3.org/1999/xlink" width="50.000000" height="40.000000" fill="none" customFrame="#000000">
	<g id="Logo">
		<path id="Vector" d="M34.7208 0.0115982C36.1744 0.00972389 37.5653 0.00739628 38.9561 0.00720775C40.8986 0.00694306 42.113 0.759402 42.8561 2.4714C43.5396 4.04604 44.1945 5.63174 44.8512 7.21654C46.5086 11.2167 48.1535 15.2215 49.8218 19.2177C50.0321 19.7216 50.079 20.1422 49.8382 20.6774C48.2574 24.1913 46.727 27.7252 45.1822 31.2534C45.0752 31.4977 44.9408 31.7063 44.6719 31.8297C43.8962 32.1858 43.1195 32.5411 42.358 32.923C42.0264 33.0893 41.7786 33.0354 41.4956 32.8342C40.8143 32.3499 40.2073 31.772 39.3455 31.2878C39.8224 32.5363 40.3429 33.632 40.8881 34.7158C41.0911 35.1191 41.4247 34.8974 41.6957 34.7565C43.2435 33.9517 44.7863 33.1384 46.3342 32.3337C46.5105 32.2421 46.6729 32.0874 46.9159 32.1494C47.0699 32.3487 46.8926 32.4766 46.7944 32.6144C45.4701 34.4729 44.1318 36.3227 42.8216 38.1898C41.9605 39.417 40.7817 40.0178 39.2124 39.9989C37.3583 39.9765 35.5036 39.997 33.6492 39.9925C33.3804 39.9918 33.1019 40.036 32.8451 39.9175C32.6898 39.6757 32.8797 39.4944 32.9621 39.3061C35.6985 33.0491 38.4345 26.7919 41.1919 20.5431C41.363 20.1553 41.356 19.8363 41.2001 19.4712C38.5818 13.3414 35.9677 7.21002 33.3531 1.07882C33.2287 0.787129 33.1087 0.493796 32.9598 0.136775C33.5429 -0.0969519 34.1129 0.0599583 34.7208 0.0115982Z" fill="rgb(255,165,0)" fill-rule="evenodd" />
		<path id="Vector" d="M1.71569 15.7296C2.7703 13.3286 3.81028 10.9711 4.83767 8.60878C4.96727 8.31078 5.1724 8.1231 5.4755 7.99383C6.16604 7.69932 6.8655 7.41823 7.53134 7.07962C7.91354 6.88525 8.19002 6.93511 8.50072 7.17647C8.95509 7.52942 9.42272 7.86804 9.8963 8.19806C10.1074 8.3452 10.288 8.55696 10.6412 8.57566C10.5049 7.96732 10.1262 7.48636 9.8928 6.95079C9.66159 6.42018 9.36477 5.91455 9.13957 5.38197C8.95774 4.95198 8.73 4.92629 8.32477 5.14156C6.73121 5.98812 5.12357 6.81133 3.51944 7.64028C3.34455 7.73066 3.18954 7.88423 2.96789 7.85602C2.83741 7.64863 2.99462 7.53284 3.08155 7.41329C4.49568 5.46864 5.91149 3.52504 7.33348 1.58546C8.13727 0.489105 9.25166 -0.0166511 10.6724 0.000417639C12.5897 0.0234538 14.5076 0.00288661 16.4252 0.00428239C17.2216 0.00486248 17.2372 0.0416864 16.9406 0.718213C14.6403 5.96597 12.3446 11.2155 10.0476 16.4646C9.60739 17.4705 9.17463 18.4794 8.7241 19.4812C8.56732 19.8298 8.56026 20.1426 8.71598 20.5054C11.362 26.6696 13.9957 32.8385 16.6258 39.0088C16.7404 39.2777 16.9018 39.5439 16.8704 39.8547C16.6798 40.0491 16.4347 39.9887 16.2146 39.9895C14.4655 39.9962 12.7165 40.0022 10.9675 39.9939C8.97041 39.9844 7.76509 39.1569 7.04173 37.3953C4.77632 31.8782 2.50451 26.3633 0.20351 20.8592C-0.0644751 20.2182 -0.0770704 19.67 0.22116 19.0515C0.742309 17.9706 1.20816 16.8662 1.71569 15.7296Z" fill="rgb(71,60,251)" fill-rule="evenodd" />
		<path id="Vector" d="M31.6843 20.7282C30.0624 20.7278 28.5034 20.743 26.9451 20.7181C26.4319 20.7099 26.2525 20.8728 26.218 21.356C26.1644 22.1082 26.1484 22.8599 26.1752 23.6097C26.1938 24.1313 25.9924 24.3122 25.4485 24.3053C23.8058 24.2845 22.1625 24.3061 20.5198 24.2854C20.0574 24.2795 19.749 24.3882 19.4839 24.7816C19.0139 25.4793 18.1897 25.7148 17.3879 25.4726C16.6075 25.2369 16.0193 24.477 16.0274 23.7149C16.0362 22.8984 16.5578 22.2232 17.3809 21.9631C18.1791 21.7108 19.0123 21.9402 19.4865 22.6358C19.7297 22.9925 20.0032 23.0944 20.416 23.0893C21.7007 23.0733 22.9862 23.0582 24.2703 23.0876C24.8432 23.1008 25.0016 22.8888 24.9776 22.3865C24.9435 21.6755 24.997 20.9609 24.9636 20.2499C24.9371 19.6858 25.1623 19.4847 25.7686 19.4901C28.296 19.5128 30.8238 19.4928 33.3514 19.5072C33.8235 19.5098 34.1524 19.4378 34.4441 19.0115C35.0306 18.1546 36.4036 18.0415 37.231 18.7081C38.0837 19.3953 38.1431 20.6753 37.3564 21.4107C36.5484 22.1659 35.1481 22.1509 34.5172 21.2852C34.1558 20.7894 33.7587 20.6858 33.2005 20.7186C32.7179 20.747 32.232 20.7269 31.6843 20.7282Z" fill="rgb(255,165,0)" fill-rule="evenodd" />
		<path id="Vector" d="M12.0568 20.3054C12.0441 19.1772 12.4603 18.549 13.37 18.267C14.2462 17.9954 15.0058 18.255 15.6464 19.0924C15.8241 19.3247 16.0271 19.3701 16.2899 19.3692C17.4903 19.3655 18.691 19.3484 19.8908 19.3719C20.4204 19.3823 20.6134 19.1511 20.6209 18.7021C20.6321 18.0296 20.6428 17.357 20.6514 16.6844C20.6629 15.77 20.6929 15.7258 21.6916 15.7185C23.5447 15.7049 25.3979 15.7108 27.2512 15.7089C27.7776 15.7084 28.3046 15.695 28.8305 15.7121C29.5515 15.7356 30.1501 15.7082 30.6555 15.0187C31.2274 14.2385 32.6379 14.3249 33.3556 15.0296C34.1049 15.7652 34.0588 17.0137 33.2571 17.6972C32.4753 18.3638 31.1797 18.3161 30.5624 17.5146C30.1881 17.0286 29.7702 16.9142 29.1805 16.9217C26.9696 16.9498 24.7581 16.9501 22.547 16.933C22.0234 16.929 21.8532 17.0712 21.8839 17.581C21.93 18.349 21.8518 19.1229 21.871 19.8933C21.8825 20.3542 21.712 20.5233 21.2144 20.5171C19.6353 20.4972 18.0556 20.5157 16.4762 20.5087C16.1178 20.5071 15.8468 20.5564 15.6457 20.9003C15.2442 21.5871 14.5789 21.9313 13.7524 21.8231C12.8611 21.7064 12.2703 21.2059 12.0568 20.3054Z" fill="rgb(71,60,251)" fill-rule="evenodd" />
		<path id="Vector" d="M21.948 13.2352C19.4652 13.2353 17.0456 13.227 14.6262 13.2416C14.1097 13.2447 13.9214 13.0726 13.9296 12.5809C13.9375 12.1046 14.2012 12.0231 14.6095 12.0233C16.2716 12.0241 17.9337 12.0167 19.5958 12.0157C21.5314 12.0145 23.4672 12.0063 25.4026 12.0249C25.8809 12.0296 26.2025 11.9199 26.507 11.5287C27.2156 10.6183 28.5395 10.5552 29.3836 11.3272C30.1535 12.0312 30.1422 13.2768 29.36 13.9278C28.4356 14.6971 27.1484 14.5771 26.4467 13.6161C26.2214 13.3076 25.9718 13.2203 25.6089 13.2241C24.4098 13.2368 23.2104 13.2327 21.948 13.2352Z" fill="rgb(255,53,53)" fill-rule="evenodd" />
		<path id="Vector" d="M23.44 28.5075C22.5757 29.364 21.6671 29.5013 20.7641 28.9422C20.005 28.4722 19.7308 27.5586 20.1039 26.742C20.6774 25.4865 22.4951 25.2366 23.3591 26.3406C23.686 26.7583 24.0254 26.8537 24.5189 26.852C28.1169 26.8392 31.715 26.8494 35.3129 26.8351C35.807 26.8331 36.0595 26.9464 36.0337 27.4629C36.0149 27.8406 35.869 27.9837 35.4684 27.9939C31.8932 28.0846 28.3183 28.1091 24.7429 28.0039C24.2517 27.9895 23.7031 27.8609 23.44 28.5075Z" fill="rgb(160,160,160)" fill-rule="evenodd" />
	</g>
</svg>
