<svg viewBox="0 0 44 44" xmlns="http://www.w3.org/2000/svg" xmlns:xlink="http://www.w3.org/1999/xlink" width="44.000000" height="44.000000" fill="none">
	<rect id="vk" width="44.000000" height="44.000000" x="0.000000" y="0.000000" fill="rgb(255,255,255)" fill-opacity="0" />
	<path id="Vector" d="M22 44C34.1503 44 44 34.1503 44 22C44 9.84974 34.1503 0 22 0C9.84974 0 0 9.84974 0 22C0 34.1503 9.84974 44 22 44Z" fill="rgb(39,135,245)" fill-rule="evenodd" />
	<path id="Vector" d="M25.1724 11.666L18.8276 11.666C13.0371 11.666 11.666 13.0371 11.666 18.8276L11.666 25.1724C11.666 30.9629 13.0371 32.334 18.8276 32.334L25.1724 32.334C30.9629 32.334 32.334 30.9629 32.334 25.1724L32.334 18.8276C32.334 13.0371 30.9482 11.666 25.1724 11.666ZM28.3521 26.412L26.8482 26.412C26.2793 26.412 26.1044 25.96 25.0834 24.9245C24.1936 24.0651 23.8 23.9473 23.5795 23.9473C23.2732 23.9473 23.1855 24.0333 23.1855 24.4578L23.1855 25.8143C23.1855 26.1791 23.0686 26.3979 22.1061 26.3979C20.5163 26.3979 18.7516 25.4354 17.5115 23.641C15.6445 21.0156 15.134 19.0463 15.134 18.6381C15.134 18.4194 15.22 18.2153 15.6445 18.2153L17.1484 18.2153C17.5278 18.2153 17.6735 18.3902 17.8191 18.7988C18.5629 20.943 19.803 22.8246 20.3113 22.8246C20.5008 22.8246 20.5885 22.7386 20.5885 22.2557L20.5885 20.0385C20.53 19.0175 19.9904 18.9299 19.9904 18.5655C19.9904 18.3906 20.136 18.2153 20.3698 18.2153L22.733 18.2153C23.054 18.2153 23.1705 18.3902 23.1705 18.7696L23.1705 21.7594C23.1705 22.0804 23.3161 22.1968 23.4038 22.1968C23.5933 22.1968 23.754 22.0799 24.1038 21.7302C25.1831 20.5197 25.9561 18.6527 25.9561 18.6527C26.0584 18.434 26.2333 18.2299 26.6127 18.2299L28.1166 18.2299C28.5686 18.2299 28.6709 18.4632 28.5686 18.7842C28.3791 19.6595 26.5414 22.2557 26.5414 22.2557C26.3811 22.5182 26.3227 22.6351 26.5414 22.9264C26.7016 23.1451 27.2289 23.5971 27.5769 24.0058C28.2189 24.7362 28.7147 25.3477 28.8458 25.7705C28.994 26.1933 28.7749 26.412 28.3521 26.412Z" fill="rgb(255,255,255)" fill-rule="nonzero" />
</svg>
